# xmcd
#
# Track frame offsets: 
#        150
#        14728
#        29819
#        45325
#        65792
#        76102
#        94303
#        115407
#        130711
#        150542
#        170441
#        184750
#        201743
#        218467
#        226252
#
# Disc length: 3213 seconds
#
# Revision: 0
# Processed by: cddbd v1.5.2PL0 Copyright (c) Steve Scherf et al.
# Submitted via: ExactAudioCopy v0.95a5
#
DISCID=cf0c8b0f
DTITLE=C-Rayz Walz - Year of The Beast
DYEAR=2005
DGENRE=Hip-Hop
TTITLE0=R'Thentic
TTITLE1=First Words Worse Featuring El-P
TTITLE2=Knowledge
TTITLE3=Walk Through Featuring Rob Sonic
TTITLE4=The Rhyme Intervention Featuring 4th Pyramid
TTITLE5=Street Reppin Featuring Vordul Mega
TTITLE6=Paradise
TTITLE7=Music Take Over Featuring Pudge
TTITLE8=Pink Featuring Jean Grae
TTITLE9=Carefree Featuring Jeanine
TTITLE10=Say Werd
TTITLE11=BlackOut Featuring The Angel and The Preacher
TTITLE12=BlackSoap Featuring M-1 From Dead Prez
TTITLE13=Mark Of The Beast Featuring Buddha Belly and Honest John
TTITLE14=Officially Lost Introducing Trinity
EXTD=
EXTT0=
EXTT1=
EXTT2=
EXTT3=
EXTT4=
EXTT5=
EXTT6=
EXTT7=
EXTT8=
EXTT9=
EXTT10=
EXTT11=
EXTT12=
EXTT13=
EXTT14=
PLAYORDER=
